<svg width="512" height="512" viewBox="0 0 512 512" xmlns="http://www.w3.org/2000/svg">
  <!-- White background -->
  <rect width="512" height="512" fill="white"/>
  
  <defs>
    <!-- Gradient for the blue outer ring -->
    <linearGradient id="ringGradient" x1="0%" y1="0%" x2="0%" y2="100%">
      <stop offset="0%" style="stop-color:#64B5F6"/>
      <stop offset="100%" style="stop-color:#42A5F5"/>
    </linearGradient>
    
    <!-- Pencil body gradient -->
    <linearGradient id="pencilYellow" x1="0%" y1="0%" x2="0%" y2="100%">
      <stop offset="0%" style="stop-color:#FFE082"/>
      <stop offset="100%" style="stop-color:#FFD54F"/>
    </linearGradient>
    
    <!-- Subtle shadow -->
    <filter id="shadow" x="-20%" y="-20%" width="140%" height="140%">
      <feDropShadow dx="0" dy="5" stdDeviation="7" flood-color="#000" flood-opacity="0.11"/>
    </filter>
  </defs>
  
  <!-- Left pencil (scaled and positioned safely within bounds) -->
  <g transform="translate(120, 105) rotate(-30) scale(1.18)">
    <!-- Pencil tip (graphite) -->
    <polygon points="-15,68 15,68 0,90" fill="#505050"/>
    <!-- Pencil tip (wood) -->
    <polygon points="-28,45 28,45 15,68 -15,68" fill="#FFCC80"/>
    <!-- Pencil body -->
    <rect x="-28" y="-30" width="56" height="75" fill="url(#pencilYellow)" rx="5"/>
    <!-- Metal ferrule -->
    <rect x="-28" y="-50" width="56" height="20" fill="#BDBDBD"/>
    <!-- Eraser -->
    <rect x="-28" y="-82" width="56" height="32" fill="#90CAF9" rx="5"/>
  </g>
  
  <!-- Right pencil (scaled and positioned safely within bounds) -->
  <g transform="translate(392, 105) rotate(30) scale(1.18)">
    <!-- Eraser -->
    <rect x="-28" y="50" width="56" height="32" fill="#90CAF9" rx="5"/>
    <!-- Metal ferrule -->
    <rect x="-28" y="30" width="56" height="20" fill="#BDBDBD"/>
    <!-- Pencil body -->
    <rect x="-28" y="-45" width="56" height="75" fill="url(#pencilYellow)" rx="5"/>
    <!-- Pencil tip (wood) -->
    <polygon points="-28,-45 28,-45 15,-68 -15,-68" fill="#FFCC80"/>
    <!-- Pencil tip (graphite) -->
    <polygon points="-15,-68 15,-68 0,-90" fill="#505050"/>
  </g>
  
  <!-- Main clock circle - larger but balanced -->
  <g filter="url(#shadow)">
    <!-- Blue outer ring - r=218 -->
    <circle cx="256" cy="272" r="218" fill="url(#ringGradient)"/>
    
    <!-- White inner face - r=182 -->
    <circle cx="256" cy="272" r="182" fill="#FAFAFA"/>
  </g>
  
  <!-- Progress wedge (20 minutes from 0) - blue -->
  <path d="M 256 272 L 256 90 A 182 182 0 0 1 413.5 363 Z" fill="#42A5F5" fill-opacity="0.25"/>
  
  <!-- Simple tick marks - only 4 -->
  <line x1="256" y1="98" x2="256" y2="122" stroke="#BDBDBD" stroke-width="3" stroke-linecap="round"/>
  <line x1="430" y1="272" x2="406" y2="272" stroke="#BDBDBD" stroke-width="3" stroke-linecap="round"/>
  <line x1="256" y1="446" x2="256" y2="422" stroke="#BDBDBD" stroke-width="3" stroke-linecap="round"/>
  <line x1="82" y1="272" x2="106" y2="272" stroke="#BDBDBD" stroke-width="3" stroke-linecap="round"/>
  
  <!-- Center knob -->
  <circle cx="256" cy="272" r="65" fill="white"/>
  <circle cx="256" cy="272" r="65" fill="none" stroke="#E8E8E8" stroke-width="2"/>
  
  <!-- T logo (thick, icon-like, blue) -->
  <g transform="translate(256, 272)">
    <!-- Horizontal bar of T -->
    <rect x="-29" y="-26" width="58" height="15" rx="5" fill="#42A5F5"/>
    <!-- Vertical bar of T -->
    <rect x="-8" y="-17" width="16" height="48" rx="5" fill="#42A5F5"/>
  </g>
</svg>
