<?xml version="1.0" encoding="UTF-8"?>
<svg xmlns="http://www.w3.org/2000/svg" width="1400" height="400" viewBox="0 0 1400 400" font-family="'Pretendard','Apple SD Gothic Neo','Noto Sans KR',sans-serif"><rect width="1400" height="400" fill="#ffffff"></rect><g><path d="M471.8 25.3 C632.1 29.5, 790.9 27.0, 926.1 20.9 C930.8 23.9, 931.7 24.8, 936.5 31.7 C930.0 31.1, 933.3 46.1, 933.2 50.2 C941.2 48.8, 930.5 57.5, 933.8 59.9 C812.3 60.9, 699.3 59.3, 468.8 56.7 C462.2 57.8, 460.5 56.6, 458.5 45.0 C468.7 46.9, 463.9 39.5, 460.9 30.1 C459.8 20.4, 462.6 18.0, 468.0 21.8 C471 24, 471 24, 471 24" stroke="none" stroke-width="0" fill="#e5dbff"></path></g><text x="700" y="46" font-size="27" font-weight="700" fill="#212529" text-anchor="middle">설계한 쪽이 마지막에 다시 본다</text><text x="700" y="76" font-size="15" font-weight="500" fill="#868e96" text-anchor="middle">구현은 싼 모델에 넘기고, 검토는 다른 모델에 맡기고, 최종 확인은 처음 설계한 쪽이 한다</text><g><path d="M58.5 118.5 C58.5 118.5, 58.5 118.5, 58.5 118.5 M58.5 118.5 C58.5 118.5, 58.5 118.5, 58.5 118.5 M53.5 131.2 C56.5 129.6, 64.1 123.5, 69.0 113.9 M56.2 131.4 C60.8 124.1, 67.0 120.1, 68.6 116.4 M58.2 139.2 C60.1 130.5, 69.7 125.8, 75.4 113.5 M56.2 140.6 C63.9 132.0, 70.5 123.7, 76.4 115.2 M54.0 146.9 C64.1 137.0, 76.7 129.6, 87.4 115.2 M55.5 149.3 C63.0 139.2, 71.4 132.0, 86.0 115.3 M55.3 156.5 C65.2 150.4, 71.0 138.9, 93.0 116.4 M55.0 157.7 C68.9 143.9, 80.2 128.0, 92.2 116.5 M56.5 169.4 C68.1 149.0, 84.7 130.2, 102.7 115.0 M54.7 167.7 C69.3 150.9, 83.4 133.4, 99.9 114.7 M53.2 178.7 C75.5 152.2, 98.1 130.6, 109.2 113.0 M56.1 176.2 C75.1 154.8, 92.7 132.9, 108.8 115.6 M55.9 184.2 C67.6 171.5, 79.4 155.4, 116.5 117.2 M55.9 186.7 C76.8 161.5, 97.3 137.7, 116.1 115.2 M56.1 195.1 C79.6 171.4, 101.7 142.8, 127.0 115.0 M55.9 195.3 C71.2 179.0, 86.1 160.0, 123.9 115.1 M55.2 205.2 C79.5 179.6, 100.3 154.8, 135.1 114.2 M54.7 204.4 C72.5 184.5, 91.0 166.2, 132.0 115.5 M55.4 214.9 C74.1 191.9, 97.0 164.8, 141.9 113.1 M54.9 213.9 C77.7 189.3, 98.7 165.7, 139.4 114.4 M54.1 221.5 C83.7 189.4, 114.3 155.4, 151.5 117.2 M55.1 222.0 C83.3 190.8, 111.1 158.7, 148.2 114.5 M57.6 228.9 C79.4 203.5, 103.2 177.6, 157.7 116.8 M54.8 231.3 C95.2 187.3, 131.8 143.5, 156.2 115.8 M53.3 238.5 C81.7 211.2, 104.3 182.3, 163.3 115.7 M55.0 241.2 C78.5 212.1, 104.1 186.3, 164.5 114.1 M53.9 250.0 C95.4 201.4, 132.4 156.8, 172.0 113.7 M54.9 248.8 C99.7 199.6, 144.0 150.2, 172.9 115.6 M56.2 260.2 C96.0 207.0, 141.6 159.2, 179.6 114.1 M54.4 257.8 C93.7 215.9, 128.8 173.7, 180.9 114.6 M57.2 266.5 C98.2 218.1, 144.0 166.7, 188.4 117.0 M56.5 268.7 C84.0 235.2, 113.4 203.3, 189.4 114.7 M54.1 275.4 C90.0 241.6, 122.7 201.1, 196.3 116.6 M56.3 276.4 C100.9 225.4, 147.8 173.5, 196.5 114.2 M59.1 284.2 C115.6 216.9, 175.0 152.7, 203.6 114.9 M57.5 284.4 C108.0 225.8, 160.0 166.0, 203.6 116.1 M60.2 289.9 C117.2 227.7, 172.6 164.1, 211.9 117.4 M62.8 287.8 C120.3 224.9, 175.3 158.7, 211.6 115.7 M70.2 291.3 C123.5 229.0, 177.0 166.7, 219.7 114.7 M68.0 289.1 C98.8 251.8, 131.4 214.6, 220.8 115.7 M75.5 291.8 C117.9 237.7, 164.8 188.0, 229.3 113.3 M76.9 289.7 C109.5 252.4, 141.5 215.3, 228.3 115.0 M82.6 289.6 C130.2 238.8, 175.9 182.1, 237.1 114.1 M83.7 291.1 C130.3 237.6, 175.7 185.4, 235.2 116.1 M89.9 292.5 C139.7 237.5, 187.0 183.8, 244.2 113.8 M91.2 290.2 C135.0 242.2, 175.9 194.3, 244.3 116.0 M100.1 291.6 C150.2 230.0, 201.5 173.3, 252.4 116.2 M100.6 291.3 C144.6 237.5, 189.3 183.1, 252.7 115.6 M106.4 291.0 C160.1 231.2, 208.6 173.9, 260.7 113.0 M107.4 290.8 C148.6 243.6, 190.0 196.8, 259.5 115.0 M116.9 290.8 C154.2 242.9, 193.0 196.0, 266.8 116.4 M115.3 290.6 C172.7 220.5, 232.5 154.2, 268.2 116.1 M123.2 292.2 C165.1 246.0, 203.7 196.1, 275.6 114.1 M124.4 291.1 C180.1 223.8, 237.7 158.2, 275.9 114.4 M133.0 289.2 C168.4 246.0, 205.7 202.4, 282.7 115.4 M131.1 290.8 C176.3 237.7, 223.1 184.3, 284.5 115.9 M139.5 289.4 C170.2 251.0, 205.8 211.7, 294.2 113.0 M139.8 290.8 C185.1 238.9, 233.1 184.9, 291.2 115.4 M148.8 290.0 C176.7 255.4, 208.0 218.7, 301.2 116.3 M147.2 290.6 C187.7 244.9, 228.5 197.5, 300.1 115.6 M154.8 289.3 C196.2 244.0, 233.3 198.5, 306.2 114.8 M155.4 290.7 C210.1 225.4, 267.0 161.3, 307.1 114.6 M161.3 288.6 C223.7 220.6, 281.0 155.8, 315.1 115.4 M162.9 290.4 C206.9 237.4, 253.9 185.5, 314.6 115.0 M169.6 291.2 C216.8 238.7, 261.3 183.5, 321.8 113.9 M172.0 290.4 C206.9 249.1, 242.7 207.2, 322.6 114.7 M180.6 290.1 C237.8 226.1, 296.3 156.9, 332.0 117.0 M179.2 289.5 C223.0 244.1, 263.7 196.0, 330.6 116.0 M187.4 288.3 C220.9 252.9, 250.2 216.6, 334.8 118.7 M186.6 289.6 C247.4 223.9, 305.6 156.4, 336.2 118.7 M196.5 292.0 C245.5 232.6, 297.0 170.8, 339.8 126.1 M195.2 291.1 C235.0 245.9, 273.4 200.5, 340.2 124.6 M203.5 292.6 C243.2 246.9, 282.3 195.8, 341.1 133.9 M203.3 291.5 C237.5 248.3, 272.3 209.7, 339.4 133.9 M211.2 288.8 C259.8 232.0, 310.6 179.2, 338.0 140.9 M211.5 291.6 C236.7 259.5, 265.4 226.2, 340.1 140.8 M221.0 287.9 C266.5 236.8, 317.2 181.9, 339.6 151.8 M220.1 289.0 C252.5 251.9, 285.1 212.7, 341.4 149.6 M226.0 291.6 C262.0 251.0, 296.8 208.8, 341.5 159.6 M226.4 290.1 C257.3 257.0, 284.3 226.8, 341.6 159.1 M233.4 291.6 C257.9 265.7, 281.4 235.9, 341.6 167.5 M235.2 289.4 C258.6 263.2, 281.7 238.6, 340.3 167.8 M243.0 289.5 C270.9 256.1, 304.1 223.4, 341.3 177.5 M243.3 290.6 C279.8 248.8, 314.5 209.3, 339.7 178.8 M252.0 291.5 C287.0 250.9, 322.9 210.6, 341.7 186.6 M251.6 290.2 C276.7 260.8, 305.3 227.8, 340.2 186.9 M261.1 290.4 C284.5 259.9, 309.0 233.5, 338.1 197.3 M258.6 289.9 C286.4 258.8, 314.8 223.9, 341.6 195.7 M266.4 288.5 C284.1 273.1, 296.1 253.5, 340.6 205.0 M265.9 289.1 C284.5 268.1, 304.8 246.5, 341.1 205.6 M273.7 290.6 C298.1 262.1, 326.6 233.7, 337.9 213.2 M275.5 290.4 C291.9 270.7, 309.2 248.5, 341.4 215.4 M280.1 292.2 C298.0 268.8, 318.8 249.1, 338.5 226.1 M282.7 290.1 C296.4 272.6, 311.9 257.1, 341.3 223.5 M291.3 290.5 C306.3 270.1, 323.7 251.4, 339.5 233.4 M290.4 289.6 C308.6 268.9, 327.2 247.9, 339.3 234.0 M297.4 292.6 C312.9 271.1, 329.7 255.6, 343.3 242.3 M297.7 289.8 C308.3 280.6, 314.7 269.6, 341.7 241.9 M308.5 288.4 C318.7 277.4, 329.3 264.4, 338.5 251.0 M306.4 290.4 C319.8 274.0, 331.9 260.3, 341.3 250.7 M315.5 288.9 C327.0 277.2, 332.5 269.3, 340.4 260.9 M314.3 291.6 C325.0 277.3, 335.0 265.5, 341.5 260.3 M321.8 292.8 C330.5 282.9, 335.7 275.6, 341.5 270.4 M321.6 289.5 C329.6 282.8, 337.1 274.3, 339.9 270.0 M332.6 289.9 C332.8 287.0, 336.6 283.5, 338.3 278.9 M330.6 288.7 C334.3 286.1, 336.4 284.3, 339.7 279.8" stroke="#e5dbff" stroke-width="1.1" fill="none"></path><path d="M67.4 115.8 C126.0 113.6, 181.7 117.1, 324.6 115.3 M68.2 115.7 C164.7 114.6, 259.1 113.1, 325.2 115.1 M326 115 C333.0 117.3, 339.2 118.5, 339.4 128.1 M326.0 113.5 C337.2 117.8, 341.3 121.6, 341.5 127.3 M337.8 127.1 C339.7 169.1, 338.6 213.2, 340.0 275.2 M340.8 129.2 C338.4 160.2, 337.9 191.3, 340.1 274.8 M340 276 C340.7 284.9, 335.0 290.0, 326.3 289.5 M338.7 274.0 C342.2 288.0, 337.6 289.5, 323.4 292.6 M324.6 290.5 C242.2 289.3, 156.5 288.5, 70.0 289.9 M325.5 289.2 C251.3 287.5, 175.2 287.3, 69.4 289.5 M69 290 C58.0 291.6, 53.6 286.0, 55.6 274.0 M71.4 290.7 C59.0 288.8, 53.6 286.0, 57.6 273.8 M54.1 277.0 C54.9 225.9, 51.9 175.6, 53.6 129.0 M55.7 275.8 C54.1 231.7, 53.3 185.1, 54.7 128.7 M55 129 C54.9 120.5, 59.8 114.3, 66.8 112.9 M53.2 127.1 C57.0 119.6, 61.8 116.3, 67.0 117.3 M69 115 C69 115, 69 115, 69 115 M69 115 C69 115, 69 115, 69 115" stroke="#6741d9" stroke-width="1.7" fill="none"></path></g><text x="197" y="150" font-size="19" font-weight="700" fill="#212529" text-anchor="middle">1  설계</text><text x="197" y="191.3" font-size="15" font-weight="500" fill="#212529" text-anchor="middle">방향 결정</text><text x="197" y="215.3" font-size="15" font-weight="500" fill="#212529" text-anchor="middle">완료 조건 정의</text><text x="197" y="239.3" font-size="15" font-weight="500" fill="#212529" text-anchor="middle">작업 묶음 분해</text><text x="197" y="272" font-size="13" font-weight="500" fill="#868e96" text-anchor="middle">메인 세션</text><g><path d="M346.8 202.4 C354.0 202.3, 365.0 203.0, 391.2 203.5 M345.4 202.2 C354.6 203.1, 365.4 203.0, 389.3 202.5" stroke="#343a40" stroke-width="1.6" fill="none"></path></g><g><path d="M390.8 202.2 C387.8 203.2, 386.4 204.3, 382.3 206.3 M390.2 202.1 C387.8 203.2, 386.1 204.0, 381.5 205.9" stroke="#343a40" stroke-width="1.6" fill="none"></path></g><g><path d="M390.8 202.2 C387.8 201.6, 386.4 201.1, 382.3 199.0 M390.2 202.1 C387.8 201.5, 386.1 200.6, 381.5 198.6" stroke="#343a40" stroke-width="1.6" fill="none"></path></g><g><path d="M398.5 118.5 C398.5 118.5, 398.5 118.5, 398.5 118.5 M398.5 118.5 C398.5 118.5, 398.5 118.5, 398.5 118.5 M396.4 130.3 C398.1 125.9, 405.8 119.2, 407.8 114.9 M395.3 131.3 C401.3 124.2, 407.3 118.9, 408.7 114.1 M394.8 139.1 C401.3 132.0, 407.1 125.4, 419.5 116.0 M394.8 139.6 C404.7 129.6, 411.0 121.3, 418.3 115.6 M398.0 150.6 C402.7 137.7, 412.0 128.4, 425.0 116.4 M395.7 148.6 C407.6 135.8, 419.3 121.7, 426.1 114.4 M394.5 156.1 C403.1 147.4, 414.2 138.3, 432.2 117.3 M396.2 158.7 C409.1 142.8, 422.0 127.4, 432.6 114.4 M394.2 165.3 C407.3 150.0, 421.0 136.3, 440.4 116.4 M394.4 168.7 C412.3 149.0, 427.5 130.6, 439.7 115.1 M394.7 178.5 C407.9 161.4, 417.4 150.4, 447.2 113.6 M396.3 175.8 C408.9 159.8, 426.0 141.0, 449.3 116.2 M397.1 187.4 C414.6 162.9, 434.3 139.3, 456.3 115.0 M394.5 186.5 C416.6 161.7, 437.0 138.8, 456.7 116.3 M397.3 196.8 C418.0 168.8, 439.1 141.0, 463.3 115.3 M396.1 194.4 C424.7 164.2, 452.5 131.4, 464.7 116.4 M397.0 205.6 C421.1 170.3, 449.5 136.2, 473.7 116.9 M396.0 203.5 C423.5 173.0, 451.1 144.4, 472.4 115.9 M395.6 213.1 C420.3 186.2, 442.9 158.2, 479.6 115.8 M395.5 212.7 C416.3 189.2, 434.3 166.0, 480.8 114.8 M398.3 223.0 C417.0 194.7, 443.3 171.0, 487.0 117.0 M395.7 222.1 C428.7 184.0, 462.8 144.0, 489.9 114.0 M396.6 230.2 C419.3 202.8, 444.9 173.6, 498.5 114.1 M394.6 231.4 C426.9 193.5, 460.3 155.9, 496.1 115.5 M396.6 240.4 C434.2 194.1, 476.5 147.5, 504.0 116.1 M395.1 241.2 C425.2 209.5, 453.3 175.7, 504.9 114.3 M395.5 251.0 C436.6 202.4, 482.0 154.3, 513.7 116.7 M396.1 249.8 C423.2 215.9, 455.1 182.7, 513.6 116.3 M398.1 256.9 C443.3 205.7, 490.5 147.8, 520.8 114.7 M396.4 259.2 C427.4 220.7, 461.2 185.5, 521.0 115.3 M397.2 267.6 C426.4 232.0, 459.7 197.5, 529.8 112.9 M394.6 268.0 C427.8 230.4, 461.1 194.1, 528.0 116.2 M396.3 277.6 C447.6 218.0, 497.4 157.3, 537.0 114.4 M395.2 276.9 C440.9 227.3, 483.9 175.9, 536.7 114.2 M395.7 282.3 C427.9 252.7, 458.3 215.0, 543.0 114.2 M396.6 284.4 C445.8 228.7, 494.9 173.9, 544.7 114.4 M400.6 290.1 C460.3 223.8, 514.8 157.8, 550.2 116.9 M402.4 288.9 C451.4 232.0, 502.1 173.8, 552.7 115.7 M408.7 289.0 C460.2 229.9, 511.8 173.1, 559.1 115.6 M409.1 289.4 C440.5 252.7, 473.2 217.6, 561.6 115.2 M416.7 289.8 C459.3 238.8, 505.0 188.5, 567.5 113.4 M415.9 290.6 C465.3 231.3, 515.9 174.5, 567.9 115.8 M425.2 289.0 C483.9 218.9, 544.6 151.6, 575.2 115.7 M423.3 289.5 C483.2 223.0, 543.3 155.3, 575.2 116.1 M432.7 289.5 C467.5 250.4, 502.8 205.6, 582.1 117.2 M431.0 290.4 C471.4 245.9, 511.3 199.6, 583.4 115.5 M439.6 290.4 C481.3 241.3, 522.3 195.8, 593.8 115.5 M439.3 289.7 C474.2 250.9, 509.7 210.7, 591.8 116.3 M449.8 291.5 C495.1 233.9, 542.4 179.3, 598.6 115.4 M448.3 291.0 C481.7 250.8, 517.8 210.6, 601.1 115.1 M456.3 289.3 C511.2 225.6, 567.0 158.4, 607.2 116.2 M456.0 291.1 C505.1 237.9, 551.2 182.3, 608.3 114.2 M463.0 290.5 C505.1 242.7, 545.0 194.5, 615.9 117.3 M464.7 291.1 C503.1 245.8, 542.1 200.2, 616.2 116.1 M470.2 290.8 C502.2 255.5, 533.3 221.0, 625.7 117.5 M470.6 291.3 C510.5 245.1, 549.8 200.4, 622.7 116.1 M481.2 291.4 C521.3 241.3, 562.3 197.4, 631.9 115.2 M480.7 290.0 C527.2 235.5, 574.9 180.8, 633.1 115.6 M487.8 290.8 C518.8 253.5, 553.6 216.3, 639.5 116.4 M487.3 289.4 C537.0 232.8, 587.0 176.2, 639.3 116.0 M496.4 289.6 C534.1 246.0, 574.0 203.9, 646.7 114.8 M495.8 291.3 C538.0 239.1, 583.9 187.8, 647.3 115.9 M505.3 290.8 C554.9 232.2, 609.3 170.9, 656.0 117.2 M503.6 290.0 C532.4 256.3, 564.1 220.0, 656.6 114.8 M510.0 291.4 C545.5 252.7, 579.9 212.6, 663.1 113.9 M510.1 291.4 C544.5 250.7, 579.5 208.8, 662.9 115.2 M518.1 291.6 C562.4 245.1, 598.7 195.9, 669.9 114.9 M519.8 290.9 C552.5 252.0, 586.4 213.8, 671.3 117.3 M525.9 290.5 C581.3 227.0, 633.4 166.5, 677.4 120.6 M527.6 290.2 C568.8 241.9, 611.7 191.8, 676.3 118.3 M536.5 291.1 C586.1 233.5, 639.2 173.4, 677.7 123.5 M536.0 290.9 C581.9 236.2, 629.0 183.8, 680.6 125.1 M544.9 291.9 C584.5 244.6, 622.5 197.0, 678.1 133.0 M542.5 291.6 C594.3 231.6, 646.7 173.6, 680.7 132.4 M552.8 291.7 C591.7 246.8, 630.9 200.1, 682.3 140.6 M552.1 291.6 C592.0 242.8, 631.6 195.7, 681.9 141.9 M560.5 289.2 C588.5 253.2, 620.9 220.3, 679.8 150.0 M559.9 291.2 C595.7 247.4, 631.3 203.4, 681.6 151.1 M567.1 289.2 C604.8 243.9, 643.9 199.6, 679.9 159.0 M568.1 290.0 C590.4 264.5, 617.2 234.6, 679.5 160.7 M574.3 288.1 C603.7 254.9, 630.5 223.0, 682.3 168.5 M573.9 291.0 C602.5 258.8, 630.3 224.9, 681.1 169.6 M584.8 289.4 C620.5 247.5, 660.5 204.6, 678.5 177.6 M582.2 291.0 C613.3 258.0, 640.1 224.3, 681.8 177.6 M590.3 287.5 C612.7 268.1, 631.1 244.1, 682.8 185.4 M590.2 289.9 C624.4 252.6, 656.0 216.3, 679.9 188.2 M599.5 288.2 C621.1 262.8, 644.1 237.1, 678.6 197.2 M598.0 289.3 C618.9 267.6, 638.8 243.7, 679.9 196.7 M608.1 289.5 C636.6 256.8, 663.4 224.8, 679.3 206.0 M605.8 291.0 C622.0 270.7, 639.5 250.9, 680.6 205.8 M612.8 292.2 C640.8 262.7, 666.7 232.9, 679.2 214.1 M614.3 290.5 C642.3 261.0, 666.4 230.2, 681.1 216.2 M622.5 289.3 C636.8 273.6, 647.9 260.2, 680.2 223.9 M623.7 289.5 C637.1 276.4, 649.4 260.4, 681.1 224.5 M630.2 287.9 C651.1 268.9, 667.9 245.3, 683.0 234.3 M630.0 290.3 C645.1 272.8, 661.9 255.6, 680.1 232.9 M636.6 292.6 C649.6 273.9, 662.2 264.7, 680.9 239.5 M638.2 289.8 C649.7 276.1, 663.3 262.3, 680.1 240.8 M645.0 292.9 C655.4 279.9, 663.0 270.8, 679.4 251.3 M646.7 290.3 C659.3 274.2, 674.5 259.6, 680.7 250.0 M655.0 292.5 C662.9 283.1, 670.5 275.5, 680.3 258.3 M653.2 290.3 C659.5 282.8, 665.9 277.4, 679.4 261.5 M663.7 290.1 C667.1 282.7, 676.3 279.4, 682.8 271.8 M663.1 290.0 C667.5 284.0, 673.6 279.1, 680.5 269.9 M669.8 289.2 C673.1 286.1, 677.4 283.0, 679.1 279.1 M671.8 289.6 C672.6 287.4, 675.2 285.6, 679.3 280.5" stroke="#d0ebff" stroke-width="1.1" fill="none"></path><path d="M409.2 115.2 C463.6 115.2, 521.9 113.4, 665.3 113.6 M408.3 115.8 C491.0 117.6, 573.8 117.8, 666.3 115.3 M666 115 C674.1 114.0, 678.6 119.2, 681.1 131.1 M665.4 116.8 C676.7 117.8, 679.3 119.7, 679.1 130.6 M682.0 131.2 C680.2 172.5, 678.6 211.4, 680.7 275.7 M679.3 128.7 C680.4 186.1, 680.0 245.8, 681.0 275.9 M680 276 C679.4 284.2, 674.0 292.2, 667.8 287.6 M681.2 278.1 C679.7 282.5, 674.3 289.6, 668.1 291.5 M666.7 288.0 C593.1 288.2, 516.8 289.6, 408.1 288.5 M667.0 290.7 C611.5 287.6, 555.2 287.8, 409.0 290.8 M409 290 C400.6 289.7, 396.8 286.5, 394.0 277.9 M407.9 289.1 C399.9 287.7, 394.9 287.3, 397.6 276.5 M395.9 275.3 C393.6 242.6, 392.5 205.9, 395.8 126.7 M394.5 275.2 C393.7 243.1, 393.1 213.6, 394.4 130.1 M395 129 C395.1 117.3, 397.5 116.2, 411.4 116.3 M397.0 129.0 C394.8 122.0, 402.4 112.7, 410.0 117.4 M409 115 C409 115, 409 115, 409 115 M409 115 C409 115, 409 115, 409 115" stroke="#1971c2" stroke-width="1.7" fill="none"></path></g><text x="537" y="150" font-size="19" font-weight="700" fill="#212529" text-anchor="middle">2  구현</text><text x="537" y="203.3" font-size="15" font-weight="500" fill="#212529" text-anchor="middle">작업 묶음 하나를</text><text x="537" y="227.3" font-size="15" font-weight="500" fill="#212529" text-anchor="middle">별도 코더에게 위임</text><text x="537" y="272" font-size="13" font-weight="500" fill="#868e96" text-anchor="middle">저렴한 코더</text><g><path d="M683.4 200.7 C697.2 203.3, 705.0 202.0, 730.5 201.5 M685.6 202.0 C695.3 201.3, 706.7 201.3, 729.9 202.2" stroke="#343a40" stroke-width="1.6" fill="none"></path></g><g><path d="M729.3 201.4 C728.9 203.3, 725.8 203.5, 722.0 205.4 M730.3 202.0 C727.6 202.8, 725.7 203.7, 721.8 205.8" stroke="#343a40" stroke-width="1.6" fill="none"></path></g><g><path d="M729.3 201.4 C728.9 201.6, 725.8 200.1, 722.0 198.1 M730.3 202.0 C727.6 201.0, 725.6 200.1, 721.8 198.4" stroke="#343a40" stroke-width="1.6" fill="none"></path></g><g><path d="M738.5 118.6 C738.5 118.6, 738.5 118.6, 738.5 118.6 M738.5 118.6 C738.5 118.6, 738.5 118.6, 738.5 118.6 M734.3 129.4 C737.2 125.2, 742.1 126.2, 751.0 116.7 M736.9 131.2 C741.1 125.0, 746.7 118.7, 750.8 115.1 M736.4 139.1 C742.0 133.4, 748.9 125.1, 758.7 113.4 M735.8 141.2 C739.3 135.2, 743.5 129.4, 757.7 116.1 M737.0 149.4 C741.2 138.5, 752.4 132.2, 767.6 117.5 M736.0 150.4 C746.2 138.5, 755.4 126.7, 766.1 115.9 M733.7 160.6 C747.1 144.5, 758.5 132.6, 771.3 113.2 M735.0 157.3 C749.3 141.6, 763.8 126.8, 772.9 114.8 M737.0 166.2 C745.2 156.1, 755.9 142.4, 783.2 117.9 M736.5 167.2 C751.6 149.6, 770.2 127.7, 781.9 115.4 M736.3 178.3 C746.1 164.4, 763.2 146.8, 790.2 114.2 M736.4 178.0 C745.2 163.7, 756.7 150.5, 789.8 114.3 M733.4 185.6 C749.3 168.4, 764.6 151.6, 796.1 112.7 M735.6 186.3 C753.9 163.5, 774.1 141.4, 797.2 114.9 M733.5 193.4 C758.3 166.3, 783.4 139.1, 804.7 115.6 M736.4 196.1 C761.8 165.4, 788.5 134.8, 805.5 115.2 M733.8 206.0 C754.4 180.8, 775.0 160.2, 812.3 114.6 M734.8 205.1 C756.7 181.8, 775.6 155.8, 812.8 116.3 M735.0 212.1 C761.2 185.9, 788.8 151.5, 823.1 112.7 M735.4 212.2 C754.6 191.7, 772.3 170.9, 820.3 114.6 M737.4 224.4 C769.0 183.6, 804.7 143.6, 827.5 116.8 M736.4 222.1 C757.9 198.4, 777.3 174.6, 829.1 115.9 M735.7 231.4 C764.2 199.6, 791.6 167.1, 834.3 116.4 M736.9 231.6 C764.0 199.6, 791.7 168.3, 836.0 115.2 M734.9 242.4 C769.9 202.1, 800.1 162.9, 844.6 116.5 M735.2 241.2 C766.1 207.1, 799.4 170.4, 845.3 114.5 M737.1 252.1 C782.8 195.5, 826.6 143.8, 850.3 114.7 M734.9 250.8 C775.9 204.9, 816.2 158.5, 851.8 114.5 M734.9 258.6 C763.8 225.3, 797.5 191.4, 861.4 116.0 M735.8 258.2 C763.5 228.3, 790.7 195.3, 860.5 114.2 M737.2 268.7 C782.3 216.7, 825.3 164.1, 866.7 113.2 M734.9 267.4 C771.7 225.6, 808.8 184.8, 868.7 115.4 M734.1 275.4 C780.5 230.0, 823.5 177.1, 877.6 116.6 M736.3 277.5 C778.7 227.1, 822.2 178.3, 876.9 114.2 M736.7 284.8 C769.5 250.3, 800.3 214.0, 882.5 113.5 M737.9 284.4 C782.1 233.7, 826.1 181.8, 883.7 114.9 M741.1 290.3 C799.7 223.1, 857.5 158.9, 892.7 116.3 M742.1 287.8 C784.6 239.1, 828.9 188.9, 891.7 115.8 M747.1 291.0 C796.9 234.9, 846.5 179.5, 898.5 116.5 M748.0 289.7 C778.4 253.6, 809.2 218.5, 900.2 114.6 M757.9 292.0 C800.7 240.0, 845.2 189.1, 910.0 113.6 M757.0 289.4 C792.7 248.5, 827.3 206.9, 907.5 114.6 M763.6 288.3 C807.7 241.5, 852.9 190.1, 917.6 117.3 M762.9 290.1 C805.6 242.3, 847.9 194.1, 915.2 116.2 M771.2 290.8 C825.7 227.3, 879.4 164.7, 924.1 116.4 M770.8 290.6 C809.4 246.3, 848.3 201.8, 924.6 115.0 M779.7 288.4 C808.8 255.0, 839.5 220.8, 931.7 114.0 M780.7 289.4 C833.4 227.5, 888.0 164.4, 931.6 114.2 M789.0 292.1 C830.1 239.8, 876.2 187.9, 940.7 113.5 M787.1 291.2 C849.0 223.1, 908.2 154.4, 940.5 115.1 M795.8 292.1 C837.7 242.3, 880.1 194.1, 947.7 116.1 M796.7 289.5 C831.7 249.9, 868.2 209.2, 948.3 114.4 M802.8 288.9 C848.7 242.7, 890.0 191.8, 956.3 116.3 M802.8 291.1 C856.6 229.6, 909.6 168.9, 956.5 115.8 M811.6 292.4 C862.3 230.0, 917.5 165.4, 964.4 115.4 M812.2 289.7 C844.7 252.4, 876.5 214.3, 963.1 116.2 M818.0 290.0 C868.2 236.5, 914.9 179.4, 973.8 113.1 M821.0 290.0 C870.5 229.5, 920.1 171.8, 973.0 115.9 M826.8 291.7 C861.0 251.7, 895.0 213.9, 982.0 116.4 M827.4 290.3 C884.8 223.9, 943.9 156.0, 980.6 114.4 M833.8 290.0 C872.5 248.0, 910.9 205.0, 987.1 114.8 M836.1 289.7 C871.7 249.6, 904.6 211.0, 987.6 115.1 M845.0 288.7 C890.3 240.7, 933.4 186.9, 996.9 114.7 M844.3 289.6 C888.2 237.0, 935.3 183.4, 996.4 114.7 M850.4 291.5 C900.8 234.9, 951.4 174.9, 1004.4 113.9 M850.5 290.2 C885.9 250.2, 922.2 210.4, 1003.1 115.8 M859.8 288.8 C909.3 228.3, 962.1 168.7, 1012.1 117.1 M860.5 290.1 C914.4 228.5, 967.3 167.5, 1009.9 116.4 M868.7 288.4 C912.0 238.6, 957.0 188.1, 1015.8 118.2 M866.4 290.8 C925.7 223.4, 983.3 158.8, 1016.5 117.9 M876.5 290.2 C927.5 231.2, 977.8 172.9, 1019.9 125.2 M874.6 290.8 C931.0 226.5, 984.6 164.8, 1018.9 123.3 M881.9 291.3 C921.6 245.0, 963.1 196.4, 1020.2 131.3 M884.0 291.6 C922.5 246.1, 961.0 200.2, 1020.4 132.4 M890.0 288.8 C923.8 256.4, 956.0 221.3, 1021.0 141.0 M890.9 290.9 C919.3 258.7, 946.1 228.1, 1020.6 141.2 M899.9 290.6 C939.8 246.6, 973.1 202.8, 1020.0 148.2 M899.6 290.8 C940.0 242.9, 981.0 196.5, 1021.7 150.2 M908.2 291.7 C950.9 241.7, 994.2 190.5, 1018.3 158.5 M907.2 290.0 C948.7 240.5, 993.0 189.8, 1019.8 159.9 M915.2 289.7 C949.5 249.1, 984.7 210.1, 1022.9 169.4 M915.0 290.2 C949.5 252.0, 984.4 213.7, 1021.8 169.0 M921.6 289.3 C950.5 258.9, 977.9 223.4, 1020.7 177.6 M923.5 291.4 C946.8 264.7, 968.2 239.4, 1021.3 179.0 M933.0 289.4 C953.3 265.2, 977.3 236.7, 1018.9 189.1 M930.6 290.3 C951.3 267.9, 973.1 243.6, 1019.6 187.0 M937.8 290.9 C960.0 262.7, 986.5 237.8, 1019.1 197.0 M939.9 291.1 C967.8 259.6, 995.3 228.1, 1020.6 197.7 M944.8 290.5 C972.3 259.2, 999.3 231.8, 1017.9 207.1 M945.7 290.3 C974.1 255.7, 1003.6 223.4, 1020.2 206.1 M956.9 288.7 C970.4 271.7, 985.6 255.7, 1020.5 214.9 M955.6 290.6 C975.3 267.9, 995.4 243.7, 1020.8 214.5 M964.8 291.5 C982.1 268.7, 1005.2 243.3, 1021.9 226.7 M962.2 291.3 C975.2 277.7, 987.0 263.6, 1020.9 225.4 M969.1 290.3 C985.7 275.6, 996.6 264.0, 1020.9 230.9 M972.1 291.1 C982.7 275.8, 995.0 262.5, 1020.1 232.6 M980.8 292.5 C987.4 281.7, 995.9 268.7, 1018.4 241.6 M978.7 289.9 C993.7 271.7, 1011.9 252.5, 1021.0 242.1 M986.5 292.3 C999.0 273.6, 1010.4 260.6, 1020.3 251.6 M987.0 290.2 C994.4 281.3, 1000.9 273.8, 1020.1 251.8 M994.4 291.1 C1004.1 278.7, 1013.9 270.3, 1020.2 260.8 M994.5 291.5 C1002.6 281.6, 1008.2 274.0, 1019.9 260.2 M1001.3 291.6 C1008.6 281.6, 1011.6 277.5, 1019.1 268.3 M1002.8 289.8 C1009.1 282.6, 1014.6 274.8, 1021.1 269.9 M1010.1 288.4 C1013.6 285.1, 1018.5 282.5, 1019.8 279.4 M1011.5 288.9 C1014.1 286.7, 1017.1 283.1, 1018.9 279.7" stroke="#ffe8cc" stroke-width="1.1" fill="none"></path><path d="M747.0 114.7 C805.3 118.0, 862.1 118.9, 1006.0 115.9 M748.4 116.0 C819.2 115.3, 888.6 115.4, 1005.3 115.6 M1006 115 C1015.1 115.7, 1018.0 119.8, 1017.8 129.1 M1004.9 115.1 C1016.3 112.2, 1017.3 117.7, 1022.5 128.1 M1021.2 130.4 C1017.1 171.0, 1020.0 214.7, 1021.3 276.1 M1020.3 128.2 C1018.8 182.6, 1018.5 239.0, 1019.4 277.1 M1020 276 C1018.0 283.6, 1013.0 289.3, 1004.3 290.7 M1018.6 277.2 C1017.2 282.7, 1016.8 289.7, 1007.1 290.5 M1004.9 289.6 C944.0 292.2, 881.1 291.8, 750.2 291.2 M1006.4 290.2 C920.3 292.9, 832.3 293.4, 748.6 290.1 M749 290 C738.2 287.8, 734.9 286.9, 737.4 276.7 M749.4 292.4 C740.9 292.3, 736.2 282.8, 737.7 273.5 M732.7 273.6 C732.3 224.9, 733.1 177.4, 733.0 129.4 M735.9 277.1 C733.3 227.6, 733.0 180.8, 734.0 129.1 M735 129 C735.4 119.1, 740.2 113.1, 750.9 114.6 M735.9 130.9 C732.5 118.8, 737.2 115.0, 747.3 117.4 M749 115 C749 115, 749 115, 749 115 M749 115 C749 115, 749 115, 749 115" stroke="#e8590c" stroke-width="1.7" fill="none"></path></g><text x="877" y="150" font-size="19" font-weight="700" fill="#212529" text-anchor="middle">3  검토</text><text x="877" y="203.3" font-size="15" font-weight="500" fill="#212529" text-anchor="middle">구현기와 다른 모델이</text><text x="877" y="227.3" font-size="15" font-weight="500" fill="#212529" text-anchor="middle">diff 를 보고 지적만</text><text x="877" y="272" font-size="13" font-weight="500" fill="#868e96" text-anchor="middle">다른 계열 모델</text><g><path d="M1023.7 202.5 C1036.8 203.5, 1048.6 203.9, 1069.8 203.1 M1025.8 201.7 C1037.8 202.0, 1049.7 202.2, 1070.6 202.0" stroke="#343a40" stroke-width="1.6" fill="none"></path></g><g><path d="M1069.4 202.2 C1068.4 203.5, 1066.8 204.5, 1061.7 206.1 M1070.3 201.9 C1068.2 203.1, 1066.0 204.1, 1062.0 205.7" stroke="#343a40" stroke-width="1.6" fill="none"></path></g><g><path d="M1069.4 202.2 C1068.4 201.7, 1066.8 201.0, 1061.7 198.8 M1070.3 201.9 C1068.2 201.1, 1066.0 200.2, 1062.0 198.3" stroke="#343a40" stroke-width="1.6" fill="none"></path></g><g><path d="M1078.4 118.6 C1078.4 118.6, 1078.4 118.6, 1078.4 118.6 M1078.4 118.6 C1078.4 118.6, 1078.4 118.6, 1078.4 118.6 M1077.9 127.7 C1079.1 126.1, 1083.8 121.9, 1089.1 113.5 M1076.7 130.3 C1081.7 124.8, 1086.6 120.3, 1090.3 116.1 M1078.7 138.3 C1083.1 133.8, 1086.0 128.8, 1097.8 115.9 M1077.5 139.5 C1081.2 132.1, 1087.5 126.6, 1097.1 114.0 M1076.6 147.5 C1080.3 143.7, 1088.1 135.6, 1105.1 113.6 M1076.8 148.9 C1082.9 138.2, 1091.9 131.4, 1106.2 114.9 M1078.5 159.4 C1085.4 146.0, 1096.9 131.7, 1110.5 114.0 M1076.9 157.6 C1089.8 140.0, 1105.8 123.6, 1113.2 115.2 M1075.4 166.3 C1085.0 156.3, 1092.9 142.7, 1121.6 113.7 M1076.7 167.5 C1086.3 156.2, 1094.2 146.3, 1122.3 115.1 M1078.5 177.4 C1089.7 160.6, 1104.4 141.5, 1128.1 114.9 M1077.2 176.9 C1092.8 157.2, 1111.7 134.9, 1130.3 114.9 M1075.3 183.1 C1099.9 159.2, 1117.9 135.3, 1135.9 115.5 M1074.9 185.3 C1094.3 163.1, 1111.5 142.1, 1137.8 116.0 M1076.0 193.5 C1099.5 167.7, 1128.1 136.9, 1146.1 115.9 M1075.4 193.7 C1102.2 165.7, 1127.4 135.3, 1143.8 116.6 M1076.9 205.0 C1099.2 175.5, 1126.8 146.1, 1150.9 117.4 M1077.3 202.6 C1106.0 169.4, 1136.0 133.7, 1153.2 116.6 M1075.1 210.3 C1102.3 180.2, 1129.6 150.0, 1160.9 115.4 M1076.0 213.4 C1110.1 172.1, 1144.2 134.7, 1161.7 115.0 M1077.2 220.1 C1105.4 188.4, 1131.6 158.9, 1168.0 116.7 M1075.2 221.4 C1103.7 191.1, 1129.3 159.7, 1168.3 115.4 M1075.4 231.9 C1109.5 195.9, 1138.6 155.3, 1175.2 113.7 M1077.4 230.9 C1099.1 205.1, 1123.4 177.8, 1175.9 114.9 M1073.8 238.5 C1101.1 209.5, 1129.1 177.8, 1185.2 116.9 M1075.9 240.5 C1110.1 201.5, 1145.7 159.6, 1185.7 114.7 M1074.3 247.3 C1097.8 219.9, 1126.5 191.7, 1192.0 117.7 M1076.8 248.6 C1099.9 220.6, 1127.6 190.6, 1192.6 115.2 M1077.4 259.6 C1111.3 218.7, 1146.3 180.2, 1202.0 117.3 M1075.9 258.9 C1125.1 204.1, 1172.9 149.7, 1199.9 115.6 M1077.9 269.0 C1107.6 230.0, 1142.4 194.6, 1208.1 113.5 M1075.9 268.2 C1112.6 223.2, 1151.1 178.3, 1209.5 114.6 M1076.9 276.9 C1110.4 238.3, 1142.0 197.8, 1218.3 114.5 M1075.8 277.2 C1116.9 228.4, 1158.5 180.5, 1217.2 114.3 M1077.6 282.9 C1111.1 248.0, 1142.4 208.7, 1226.3 117.1 M1077.0 284.4 C1119.9 236.5, 1161.0 189.8, 1224.8 115.4 M1080.9 291.3 C1142.6 219.3, 1200.1 152.2, 1231.7 115.0 M1081.1 289.7 C1121.2 246.6, 1159.4 201.9, 1233.5 115.0 M1089.7 288.8 C1133.6 236.8, 1177.1 182.6, 1242.1 113.2 M1089.0 289.9 C1150.5 219.5, 1209.7 149.3, 1241.0 114.1 M1092.3 293.0 C1140.3 239.1, 1184.2 186.7, 1248.2 113.8 M1093.4 293.4 C1146.7 232.7, 1200.8 170.2, 1249.2 115.4 M1099.3 294.9 C1160.3 223.5, 1221.5 156.1, 1255.8 114.6 M1102.0 293.6 C1156.8 228.5, 1212.7 161.6, 1255.2 116.2 M1107.0 295.1 C1155.3 242.3, 1197.8 192.0, 1261.9 115.6 M1110.1 293.8 C1147.5 249.1, 1186.1 205.5, 1263.6 114.5 M1116.0 295.2 C1168.0 233.7, 1220.1 174.6, 1273.2 113.4 M1116.1 293.7 C1162.8 243.6, 1204.9 193.6, 1272.9 114.9 M1124.9 292.2 C1166.9 245.2, 1208.4 195.0, 1278.7 115.8 M1124.7 293.0 C1180.0 230.7, 1235.1 167.2, 1280.0 115.2 M1132.7 293.6 C1193.1 226.9, 1253.5 157.2, 1288.1 116.0 M1132.7 293.1 C1189.1 228.8, 1245.3 164.9, 1288.4 114.6 M1140.0 294.4 C1186.8 241.5, 1230.2 191.4, 1296.7 115.3 M1140.4 294.2 C1173.9 251.8, 1208.8 212.5, 1296.8 115.5 M1150.4 292.8 C1194.3 237.3, 1239.9 185.3, 1303.2 117.6 M1149.1 293.3 C1207.7 226.7, 1265.5 159.0, 1303.5 116.4 M1155.7 292.3 C1212.5 229.9, 1270.1 162.4, 1311.5 115.2 M1155.8 293.8 C1211.6 231.2, 1266.5 169.3, 1312.8 114.1 M1163.2 291.3 C1201.1 252.1, 1235.1 213.2, 1320.2 116.4 M1164.8 294.3 C1203.8 252.3, 1240.1 209.5, 1319.7 114.9 M1172.8 293.4 C1208.3 252.3, 1246.0 212.0, 1327.5 114.8 M1173.9 293.3 C1228.3 230.2, 1283.8 168.4, 1327.9 116.3 M1182.1 293.9 C1219.6 247.2, 1260.4 204.5, 1333.5 116.5 M1180.3 294.3 C1211.6 255.0, 1246.2 216.4, 1336.2 114.5 M1188.3 294.7 C1228.1 251.0, 1265.2 209.4, 1342.2 113.2 M1188.1 294.2 C1221.6 253.9, 1257.8 215.4, 1343.9 115.6 M1198.2 294.1 C1231.1 253.7, 1262.1 213.7, 1348.7 116.5 M1195.7 293.0 C1243.4 241.6, 1287.9 189.8, 1349.3 117.0 M1204.6 293.6 C1240.6 249.2, 1279.3 203.8, 1358.3 120.1 M1204.8 292.3 C1248.9 243.6, 1292.0 193.4, 1356.6 119.7 M1213.9 292.4 C1263.2 233.5, 1312.2 175.5, 1359.2 121.1 M1212.7 293.6 C1247.3 254.1, 1281.6 215.4, 1360.7 122.3 M1220.7 293.7 C1261.5 244.4, 1303.0 198.0, 1362.9 128.8 M1220.6 294.6 C1277.0 230.5, 1332.6 165.6, 1363.0 131.7 M1228.2 295.3 C1275.1 235.3, 1327.8 179.6, 1361.0 139.9 M1228.2 294.6 C1269.9 246.9, 1311.4 198.8, 1362.9 139.1 M1236.1 295.7 C1280.9 241.9, 1321.8 190.4, 1361.5 149.8 M1236.1 294.3 C1281.6 240.3, 1327.3 187.0, 1363.2 150.3 M1246.6 292.2 C1269.3 262.7, 1300.0 234.5, 1363.0 156.4 M1243.7 292.9 C1286.3 244.0, 1329.4 197.0, 1361.4 157.5 M1253.4 294.2 C1297.2 244.6, 1337.3 196.8, 1359.9 168.9 M1251.0 292.3 C1294.8 249.0, 1335.8 202.2, 1361.3 166.8 M1260.8 292.3 C1301.8 246.6, 1337.6 204.2, 1364.2 176.2 M1259.8 294.9 C1298.6 252.8, 1333.2 209.3, 1362.2 176.3 M1267.4 294.9 C1294.6 264.6, 1320.4 230.0, 1361.4 186.3 M1267.7 294.5 C1294.0 265.0, 1320.2 233.1, 1360.6 186.8 M1278.5 291.6 C1300.2 267.2, 1321.4 241.7, 1361.6 194.6 M1276.8 293.4 C1296.4 270.2, 1313.9 248.5, 1363.3 193.9 M1283.9 294.6 C1306.8 263.0, 1330.4 238.4, 1363.5 205.8 M1282.9 292.7 C1310.4 261.3, 1339.0 228.9, 1361.7 204.1 M1293.3 293.2 C1308.6 272.3, 1327.3 253.6, 1363.8 213.5 M1291.8 293.8 C1309.1 276.7, 1324.0 257.8, 1362.5 213.0 M1299.5 291.6 C1317.9 275.2, 1332.5 254.5, 1360.6 222.3 M1300.6 293.7 C1322.3 266.8, 1346.7 239.3, 1362.7 221.7 M1309.7 296.4 C1321.8 273.1, 1338.3 255.4, 1360.1 231.1 M1308.5 293.1 C1327.4 270.2, 1349.3 247.6, 1361.5 230.9 M1317.3 295.5 C1331.3 275.2, 1350.3 257.3, 1362.3 242.2 M1316.5 293.0 C1327.7 278.7, 1340.7 265.0, 1363.2 239.4 M1325.4 294.7 C1335.3 282.8, 1344.7 267.4, 1362.5 250.4 M1324.7 293.1 C1331.2 283.5, 1339.1 274.2, 1360.9 249.6 M1331.3 292.7 C1338.4 287.2, 1346.2 278.0, 1361.4 256.8 M1330.7 293.3 C1341.7 282.0, 1350.2 270.8, 1361.6 259.9 M1340.0 292.6 C1348.3 288.1, 1351.7 276.5, 1361.7 268.3 M1338.6 294.1 C1345.0 288.7, 1350.2 280.6, 1363.0 268.3 M1347.1 294.5 C1350.4 287.0, 1357.0 286.3, 1364.0 276.2 M1348.6 293.0 C1353.1 287.4, 1356.3 283.8, 1360.7 277.4" stroke="#d3f9d8" stroke-width="1.1" fill="none"></path><path d="M1088.8 114.2 C1146.9 115.6, 1202.3 115.2, 1346.6 114.1 M1088.4 114.1 C1145.5 115.1, 1203.3 115.0, 1346.3 115.9 M1346 115 C1356.1 117.4, 1362.5 120.4, 1359.6 127.2 M1344.4 113.4 C1355.8 112.2, 1361.1 121.5, 1360.1 131.4 M1360.3 129.6 C1357.6 174.4, 1360.0 212.9, 1362.0 276.6 M1358.8 130.2 C1357.1 181.6, 1359.4 232.2, 1360.4 275.8 M1360 276 C1361.7 282.9, 1357.0 291.5, 1345.8 288.8 M1361.0 276.3 C1360.4 282.9, 1353.5 289.8, 1346.0 289.4 M1347.1 291.1 C1295.0 291.1, 1241.4 292.8, 1088.2 289.8 M1345.9 289.7 C1280.5 293.0, 1212.3 291.8, 1088.3 289.4 M1089 290 C1080.9 290.9, 1073.1 287.3, 1075.8 275.6 M1090.9 290.7 C1081.8 291.2, 1077.6 284.1, 1077.8 276.2 M1074.5 276.9 C1076.0 241.6, 1073.8 202.6, 1075.1 127.2 M1074.7 276.6 C1072.9 241.5, 1072.8 206.8, 1076.1 128.1 M1075 129 C1075.6 121.0, 1077.9 115.1, 1090.4 113.0 M1074.8 127.9 C1076.0 121.2, 1077.8 117.2, 1090.3 117.5 M1089 115 C1089 115, 1089 115, 1089 115 M1089 115 C1089 115, 1089 115, 1089 115" stroke="#2f9e44" stroke-width="1.7" fill="none"></path></g><text x="1217" y="150" font-size="19" font-weight="700" fill="#212529" text-anchor="middle">4  최종 검증</text><text x="1217" y="191.3" font-size="15" font-weight="500" fill="#212529" text-anchor="middle">diff 직접 확인</text><text x="1217" y="215.3" font-size="15" font-weight="500" fill="#212529" text-anchor="middle">테스트 재실행</text><text x="1217" y="239.3" font-size="15" font-weight="500" fill="#212529" text-anchor="middle">머지</text><text x="1217" y="272" font-size="13" font-weight="500" fill="#868e96" text-anchor="middle">다시 메인 세션</text><g><path d="M877.3 295.7 C878.4 303.4, 878.9 315.8, 876.8 339.1 M877.3 294.5 C878.0 305.1, 877.4 315.7, 876.5 340.7" stroke="#e8590c" stroke-width="1.6" fill="none"></path></g><g><path d="M877.2 340.5 C801.6 340.0, 725.7 341.6, 536.9 339.4 M877.2 339.7 C799.8 341.7, 721.8 341.9, 536.7 340.4" stroke="#e8590c" stroke-width="1.6" fill="none"></path></g><g><path d="M538.0 340.0 C537.0 329.6, 537.2 319.3, 537.8 295.3 M537.1 339.6 C537.0 323.3, 535.9 306.2, 537.4 294.5" stroke="#e8590c" stroke-width="1.6" fill="none"></path></g><g><path d="M537.5 295.0 C537.9 296.9, 538.9 298.9, 541.0 303.3 M537.0 294.8 C538.6 298.0, 539.4 300.8, 540.9 303.0" stroke="#e8590c" stroke-width="1.6" fill="none"></path></g><g><path d="M537.5 295.0 C536.2 296.9, 535.5 298.9, 533.7 303.3 M537.0 294.8 C535.9 298.0, 534.0 300.8, 533.5 303.0" stroke="#e8590c" stroke-width="1.6" fill="none"></path></g><text x="707" y="364" font-size="14" font-weight="700" fill="#e8590c" text-anchor="middle">지적이 있으면 같은 코더에게 되돌린다</text></svg>